<svg width="512" height="840" viewBox="0 0 512 840" fill="none" xmlns="http://www.w3.org/2000/svg">
<rect width="512" height="840" fill="#FFFEF1"/>
<path fill-rule="evenodd" clip-rule="evenodd" d="M500 14.5H512V15H500V29.5H512V30H500V44.5H512V45H500V59.5H512V60H500V74.5H512V75H500V89.5H512V90H500V104.5H512V105H500V119.5H512V120H500V134.5H512V135H500V149.5H512V150H500V164.5H512V165H500V179.5H512V180H500V194.5H512V195H500V209.5H512V210H500V224.5H512V225H500V239.5H512V240H500V254.5H512V255H500V269.5H512V270H500V284.5H512V285H500V299.5H512V300H500V314.5H512V315H500V329.5H512V330H500V344.5H512V345H500V359.5H512V360H500V374.5H512V375H500V389.5H512V390H500V404.5H512V405H500V419.5H512V420H500V434.5H512V435H500V449.5H512V450H500V464.5H512V465H500V479.5H512V480H500V494.5H512V495H500V509.5H512V510H500V524.5H512V525H500V539.5H512V540H500V554.5H512V555H500V569.5H512V570H500V584.5H512V585H500V599.5H512V600H500V614.5H512V615H500V629.5H512V630H500V644.5H512V645H500V659.5H512V660H500V674.5H512V675H500V689.5H512V690H500V704.5H512V705H500V719.5H512V720H500V734.5H512V735H500V749.5H512V750H500V764.5H512V765H500V779.5H512V780H500V794.5H512V795H500V809.5H512V810H500V824.5H512V825H500V839.5H512V840H0V839.5H79.5V825H0V824.5H79.5V810H0V809.5H79.5V795H0V794.5H79.5V780H0V779.5H79.5V765H0V764.5H79.5V750H0V749.5H79.5V735H0V734.5H79.5V720H0V719.5H79.5V705H0V704.5H79.5V690H0V689.5H79.5V675H0V674.5H79.5V660H0V659.5H79.5V645H0V644.5H79.5V630H0V629.5H79.5V615H0V614.5H79.5V600H0V599.5H79.5V585H0V584.5H79.5V570H0V569.5H79.5V555H0V554.5H79.5V540H0V539.5H79.5V525H0V524.5H79.5V510H0V509.5H79.5V495H0V494.5H79.5V480H0V479.5H79.5V465H0V464.5H79.5V450H0V449.5H79.5V435H0V434.5H79.5V420H0V419.5H79.5V405H0V404.5H79.5V390H0V389.5H79.5V375H0V374.5H79.5V360H0V359.5H79.5V345H0V344.5H79.5V330H0V329.5H79.5V315H0V314.5H79.5V300H0V299.5H79.5V285H0V284.5H79.5V270H0V269.5H79.5V255H0V254.5H79.5V240H0V239.5H79.5V225H0V224.5H79.5V210H0V209.5H79.5V195H0V194.5H79.5V180H0V179.5H79.5V165H0V164.5H79.5V150H0V149.5H79.5V135H0V134.5H79.5V120H0V119.5H79.5V105H0V104.5H79.5V90H0V89.5H79.5V75H0V74.5H79.5V60H0V59.5H79.5V45H0V44.5H79.5V30H0V29.5H79.5V15H0V14.5H79.5V0H80V14.5H94.5V0H95V14.5H109.5V0H110V14.5H124.5V0H125V14.5H139.5V0H140V14.5H154.5V0H155V14.5H169.5V0H170V14.5H184.5V0H185V14.5H199.5V0H200V14.5H214.5V0H215V14.5H229.5V0H230V14.5H244.5V0H245V14.5H259.5V0H260V14.5H274.5V0H275V14.5H289.5V0H290V14.5H304.5V0H305V14.5H319.5V0H320V14.5H334.5V0H335V14.5H349.5V0H350V14.5H364.5V0H365V14.5H379.5V0H380V14.5H394.5V0H395V14.5H409.5V0H410V14.5H424.5V0H425V14.5H439.5V0H440V14.5H454.5V0H455V14.5H469.5V0H470V14.5H484.5V0H485V14.5H499.5V0H500V14.5ZM80 360V374.5H94.5V360H80ZM94.5 359.5V345H80V359.5H94.5ZM95 360V374.5H109.5V360H95ZM109.5 359.5V345H95V359.5H109.5ZM110 360V374.5H124.5V360H110ZM124.5 359.5V345H110V359.5H124.5ZM125 360V374.5H139.5V360H125ZM139.5 359.5V345H125V359.5H139.5ZM140 360V374.5H154.5V360H140ZM154.5 359.5V345H140V359.5H154.5ZM155 360V374.5H169.5V360H155ZM169.5 359.5V345H155V359.5H169.5ZM170 360V374.5H184.5V360H170ZM184.5 359.5V345H170V359.5H184.5ZM185 360V374.5H199.5V360H185ZM199.5 359.5V345H185V359.5H199.5ZM200 360V374.5H214.5V360H200ZM214.5 359.5V345H200V359.5H214.5ZM215 360V374.5H229.5V360H215ZM229.5 359.5V345H215V359.5H229.5ZM230 360V374.5H244.5V360H230ZM244.5 359.5V345H230V359.5H244.5ZM245 360V374.5H259.5V360H245ZM259.5 359.5V345H245V359.5H259.5ZM260 360V374.5H274.5V360H260ZM274.5 359.5V345H260V359.5H274.5ZM275 360V374.5H289.5V360H275ZM289.5 359.5V345H275V359.5H289.5ZM290 360V374.5H304.5V360H290ZM304.5 359.5V345H290V359.5H304.5ZM305 360V374.5H319.5V360H305ZM319.5 359.5V345H305V359.5H319.5ZM320 360V374.5H334.5V360H320ZM334.5 359.5V345H320V359.5H334.5ZM335 360V374.5H349.5V360H335ZM349.5 359.5V345H335V359.5H349.5ZM350 360V374.5H364.5V360H350ZM364.5 359.5V345H350V359.5H364.5ZM365 360V374.5H379.5V360H365ZM379.5 359.5V345H365V359.5H379.5ZM380 360V374.5H394.5V360H380ZM394.5 359.5V345H380V359.5H394.5ZM395 360V374.5H409.5V360H395ZM409.5 359.5V345H395V359.5H409.5ZM410 360V374.5H424.5V360H410ZM424.5 359.5H410V345H424.5V359.5ZM425 360V374.5H439.5V360H425ZM439.5 359.5V345H425V359.5H439.5ZM440 360V374.5H454.5V360H440ZM454.5 359.5V345H440V359.5H454.5ZM455 360V374.5H469.5V360H455ZM469.5 359.5V345H455V359.5H469.5ZM470 360V374.5H484.5V360H470ZM484.5 359.5V345H470V359.5H484.5ZM485 360V374.5H499.5V360H485ZM499.5 359.5V345H485V359.5H499.5ZM80 480V494.5H94.5V480H80ZM95 480V494.5H109.5V480H95ZM110 480V494.5H124.5V480H110ZM125 480V494.5H139.5V480H125ZM140 480V494.5H154.5V480H140ZM155 480V494.5H169.5V480H155ZM170 480V494.5H184.5V480H170ZM185 480V494.5H199.5V480H185ZM200 480V494.5H214.5V480H200ZM215 480V494.5H229.5V480H215ZM230 480V494.5H244.5V480H230ZM245 480V494.5H259.5V480H245ZM260 480V494.5H274.5V480H260ZM275 480V494.5H289.5V480H275ZM290 480V494.5H304.5V480H290ZM305 480V494.5H319.5V480H305ZM320 480V494.5H334.5V480H320ZM335 480V494.5H349.5V480H335ZM350 480V494.5H364.5V480H350ZM365 480V494.5H379.5V480H365ZM380 480V494.5H394.5V480H380ZM395 480V494.5H409.5V480H395ZM410 480V494.5H424.5V480H410ZM425 480V494.5H439.5V480H425ZM440 480V494.5H454.5V480H440ZM455 480V494.5H469.5V480H455ZM470 480V494.5H484.5V480H470ZM485 480V494.5H499.5V480H485ZM499.5 225V239.5H485V225H499.5ZM484.5 254.5V240H470V254.5H484.5ZM469.5 254.5V240H455V254.5H469.5ZM454.5 254.5V240H440V254.5H454.5ZM439.5 254.5V240H425V254.5H439.5ZM424.5 254.5V240H410V254.5H424.5ZM409.5 254.5V240H395V254.5H409.5ZM394.5 254.5V240H380V254.5H394.5ZM379.5 254.5V240H365V254.5H379.5ZM364.5 254.5V240H350V254.5H364.5ZM349.5 254.5V240H335V254.5H349.5ZM334.5 254.5V240H320V254.5H334.5ZM319.5 254.5V240H305V254.5H319.5ZM304.5 254.5V240H290V254.5H304.5ZM289.5 254.5V240H275V254.5H289.5ZM274.5 254.5V240H260V254.5H274.5ZM259.5 254.5V240H245V254.5H259.5ZM244.5 254.5V240H230V254.5H244.5ZM229.5 254.5V240H215V254.5H229.5ZM214.5 254.5V240H200V254.5H214.5ZM199.5 254.5V240H185V254.5H199.5ZM184.5 254.5V240H170V254.5H184.5ZM169.5 254.5V240H155V254.5H169.5ZM154.5 254.5V240H140V254.5H154.5ZM139.5 254.5V240H125V254.5H139.5ZM124.5 254.5V240H110V254.5H124.5ZM109.5 254.5V240H95V254.5H109.5ZM94.5 254.5V240H80V254.5H94.5ZM94.5 239.5H80V225H94.5V239.5ZM95 225V239.5H109.5V225H95ZM124.5 239.5H110V225H124.5V239.5ZM125 225V239.5H139.5V225H125ZM154.5 239.5H140V225H154.5V239.5ZM155 225V239.5H169.5V225H155ZM184.5 239.5H170V225H184.5V239.5ZM185 225V239.5H199.5V225H185ZM214.5 239.5H200V225H214.5V239.5ZM215 225V239.5H229.5V225H215ZM244.5 239.5H230V225H244.5V239.5ZM245 225V239.5H259.5V225H245ZM274.5 239.5H260V225H274.5V239.5ZM275 225V239.5H289.5V225H275ZM304.5 239.5H290V225H304.5V239.5ZM305 225V239.5H319.5V225H305ZM320 225V239.5H334.5V225H320ZM335 225V239.5H349.5V225H335ZM350 225V239.5H364.5V225H350ZM365 225V239.5H379.5V225H365ZM380 225V239.5H394.5V225H380ZM395 225V239.5H409.5V225H395ZM424.5 239.5H410V225H424.5V239.5ZM425 225V239.5H439.5V225H425ZM454.5 239.5H440V225H454.5V239.5ZM455 225V239.5H469.5V225H455ZM484.5 239.5H470V225H484.5V239.5ZM499.5 240H485V254.5H499.5V240ZM80 120V134.5H94.5V120H80ZM94.5 119.5V105H80V119.5H94.5ZM95 120V134.5H109.5V120H95ZM109.5 119.5V105H95V119.5H109.5ZM110 120V134.5H124.5V120H110ZM124.5 119.5V105H110V119.5H124.5ZM125 120V134.5H139.5V120H125ZM139.5 119.5V105H125V119.5H139.5ZM140 120V134.5H154.5V120H140ZM154.5 119.5V105H140V119.5H154.5ZM155 120V134.5H169.5V120H155ZM169.5 119.5V105H155V119.5H169.5ZM170 120V134.5H184.5V120H170ZM184.5 119.5V105H170V119.5H184.5ZM185 120V134.5H199.5V120H185ZM199.5 119.5V105H185V119.5H199.5ZM200 120V134.5H214.5V120H200ZM214.5 119.5V105H200V119.5H214.5ZM215 120V134.5H229.5V120H215ZM229.5 119.5V105H215V119.5H229.5ZM230 120V134.5H244.5V120H230ZM244.5 119.5V105H230V119.5H244.5ZM245 120V134.5H259.5V120H245ZM259.5 119.5V105H245V119.5H259.5ZM260 120V134.5H274.5V120H260ZM274.5 119.5V105H260V119.5H274.5ZM275 120V134.5H289.5V120H275ZM289.5 119.5V105H275V119.5H289.5ZM290 120V134.5H304.5V120H290ZM304.5 119.5V105H290V119.5H304.5ZM305 120V134.5H319.5V120H305ZM319.5 119.5V105H305V119.5H319.5ZM320 120V134.5H334.5V120H320ZM334.5 119.5V105H320V119.5H334.5ZM335 120V134.5H349.5V120H335ZM349.5 119.5V105H335V119.5H349.5ZM350 120V134.5H364.5V120H350ZM364.5 119.5V105H350V119.5H364.5ZM365 120V134.5H379.5V120H365ZM379.5 119.5V105H365V119.5H379.5ZM380 120V134.5H394.5V120H380ZM394.5 119.5V105H380V119.5H394.5ZM395 120V134.5H409.5V120H395ZM409.5 119.5V105H395V119.5H409.5ZM410 120V134.5H424.5V120H410ZM424.5 119.5H410V105H424.5V119.5ZM425 120V134.5H439.5V120H425ZM439.5 119.5V105H425V119.5H439.5ZM440 120V134.5H454.5V120H440ZM454.5 119.5V105H440V119.5H454.5ZM455 120V134.5H469.5V120H455ZM469.5 119.5V105H455V119.5H469.5ZM470 120V134.5H484.5V120H470ZM484.5 119.5V105H470V119.5H484.5ZM485 120V134.5H499.5V120H485ZM499.5 119.5V105H485V119.5H499.5ZM499.5 45V59.5H485V45H499.5ZM484.5 74.5V60H470V74.5H484.5ZM469.5 74.5V60H455V74.5H469.5ZM454.5 74.5V60H440V74.5H454.5ZM439.5 74.5V60H425V74.5H439.5ZM424.5 74.5V60H410V74.5H424.5ZM409.5 74.5V60H395V74.5H409.5ZM394.5 74.5V60H380V74.5H394.5ZM379.5 74.5V60H365V74.5H379.5ZM364.5 74.5V60H350V74.5H364.5ZM349.5 74.5V60H335V74.5H349.5ZM334.5 74.5V60H320V74.5H334.5ZM319.5 74.5V60H305V74.5H319.5ZM304.5 74.5V60H290V74.5H304.5ZM289.5 74.5V60H275V74.5H289.5ZM274.5 74.5V60H260V74.5H274.5ZM259.5 74.5V60H245V74.5H259.5ZM244.5 74.5V60H230V74.5H244.5ZM229.5 74.5V60H215V74.5H229.5ZM214.5 74.5V60H200V74.5H214.5ZM199.5 74.5V60H185V74.5H199.5ZM184.5 74.5V60H170V74.5H184.5ZM169.5 74.5V60H155V74.5H169.5ZM154.5 74.5V60H140V74.5H154.5ZM139.5 74.5V60H125V74.5H139.5ZM124.5 74.5V60H110V74.5H124.5ZM109.5 74.5V60H95V74.5H109.5ZM94.5 74.5V60H80V74.5H94.5ZM94.5 59.5H80V45H94.5V59.5ZM95 45V59.5H109.5V45H95ZM124.5 59.5H110V45H124.5V59.5ZM125 45V59.5H139.5V45H125ZM154.5 59.5H140V45H154.5V59.5ZM155 45V59.5H169.5V45H155ZM184.5 59.5H170V45H184.5V59.5ZM185 45V59.5H199.5V45H185ZM214.5 59.5H200V45H214.5V59.5ZM215 45V59.5H229.5V45H215ZM244.5 59.5H230V45H244.5V59.5ZM245 45V59.5H259.5V45H245ZM274.5 59.5H260V45H274.5V59.5ZM275 45V59.5H289.5V45H275ZM304.5 59.5H290V45H304.5V59.5ZM305 45V59.5H319.5V45H305ZM320 45V59.5H334.5V45H320ZM335 45V59.5H349.5V45H335ZM350 45V59.5H364.5V45H350ZM365 45V59.5H379.5V45H365ZM380 45V59.5H394.5V45H380ZM395 45V59.5H409.5V45H395ZM424.5 59.5H410V45H424.5V59.5ZM425 45V59.5H439.5V45H425ZM454.5 59.5H440V45H454.5V59.5ZM455 45V59.5H469.5V45H455ZM484.5 59.5H470V45H484.5V59.5ZM499.5 60H485V74.5H499.5V60ZM499.5 15H485V29.5H499.5V15ZM499.5 30H485V44.5H499.5V30ZM484.5 30V44.5H470V30H484.5ZM484.5 15V29.5H470V15H484.5ZM469.5 15H455V29.5H469.5V15ZM469.5 30H455V44.5H469.5V30ZM454.5 30V44.5H440V30H454.5ZM454.5 15V29.5H440V15H454.5ZM439.5 15H425V29.5H439.5V15ZM439.5 30H425V44.5H439.5V30ZM424.5 44.5H410V30H424.5V44.5ZM409.5 44.5V30H395V44.5H409.5ZM424.5 29.5H410V15H424.5V29.5ZM409.5 29.5V15H395V29.5H409.5ZM394.5 15H380V29.5H394.5V15ZM394.5 30H380V44.5H394.5V30ZM379.5 44.5V30H365V44.5H379.5ZM379.5 29.5V15H365V29.5H379.5ZM364.5 15H350V29.5H364.5V15ZM364.5 30H350V44.5H364.5V30ZM349.5 44.5V30H335V44.5H349.5ZM349.5 29.5V15H335V29.5H349.5ZM334.5 15H320V29.5H334.5V15ZM334.5 30H320V44.5H334.5V30ZM319.5 44.5V30H305V44.5H319.5ZM319.5 29.5V15H305V29.5H319.5ZM304.5 30V44.5H290V30H304.5ZM304.5 15V29.5H290V15H304.5ZM289.5 15H275V29.5H289.5V15ZM289.5 30H275V44.5H289.5V30ZM274.5 30V44.5H260V30H274.5ZM274.5 15V29.5H260V15H274.5ZM259.5 15H245V29.5H259.5V15ZM259.5 30H245V44.5H259.5V30ZM244.5 30V44.5H230V30H244.5ZM244.5 15V29.5H230V15H244.5ZM229.5 15H215V29.5H229.5V15ZM229.5 30H215V44.5H229.5V30ZM214.5 30V44.5H200V30H214.5ZM214.5 15V29.5H200V15H214.5ZM199.5 15H185V29.5H199.5V15ZM199.5 30H185V44.5H199.5V30ZM184.5 30V44.5H170V30H184.5ZM184.5 15V29.5H170V15H184.5ZM169.5 15H155V29.5H169.5V15ZM169.5 30H155V44.5H169.5V30ZM154.5 30V44.5H140V30H154.5ZM154.5 15V29.5H140V15H154.5ZM139.5 15H125V29.5H139.5V15ZM139.5 30H125V44.5H139.5V30ZM124.5 30V44.5H110V30H124.5ZM124.5 15V29.5H110V15H124.5ZM109.5 15H95V29.5H109.5V15ZM109.5 30H95V44.5H109.5V30ZM94.5 30V44.5H80V30H94.5ZM94.5 15V29.5H80V15H94.5ZM499.5 75H485V89.5H499.5V75ZM499.5 90H485V104.5H499.5V90ZM484.5 90V104.5H470V90H484.5ZM484.5 75V89.5H470V75H484.5ZM469.5 75H455V89.5H469.5V75ZM469.5 90H455V104.5H469.5V90ZM454.5 90V104.5H440V90H454.5ZM454.5 75V89.5H440V75H454.5ZM439.5 75H425V89.5H439.5V75ZM439.5 90H425V104.5H439.5V90ZM424.5 104.5H410V90H424.5V104.5ZM409.5 104.5V90H395V104.5H409.5ZM424.5 89.5H410V75H424.5V89.5ZM409.5 89.5V75H395V89.5H409.5ZM394.5 75H380V89.5H394.5V75ZM394.5 90H380V104.5H394.5V90ZM379.5 104.5V90H365V104.5H379.5ZM379.5 89.5V75H365V89.5H379.5ZM364.5 75H350V89.5H364.5V75ZM364.5 90H350V104.5H364.5V90ZM349.5 104.5V90H335V104.5H349.5ZM349.5 89.5V75H335V89.5H349.5ZM334.5 75H320V89.5H334.5V75ZM334.5 90H320V104.5H334.5V90ZM319.5 104.5V90H305V104.5H319.5ZM319.5 89.5V75H305V89.5H319.5ZM304.5 90V104.5H290V90H304.5ZM304.5 75V89.5H290V75H304.5ZM289.5 75H275V89.5H289.5V75ZM289.5 90H275V104.5H289.5V90ZM274.5 90V104.5H260V90H274.5ZM274.5 75V89.5H260V75H274.5ZM259.5 75H245V89.5H259.5V75ZM259.5 90H245V104.5H259.5V90ZM244.5 90V104.5H230V90H244.5ZM244.5 75V89.5H230V75H244.5ZM229.5 75H215V89.5H229.5V75ZM229.5 90H215V104.5H229.5V90ZM214.5 90V104.5H200V90H214.5ZM214.5 75V89.5H200V75H214.5ZM199.5 75H185V89.5H199.5V75ZM199.5 90H185V104.5H199.5V90ZM184.5 90V104.5H170V90H184.5ZM184.5 75V89.5H170V75H184.5ZM169.5 75H155V89.5H169.5V75ZM169.5 90H155V104.5H169.5V90ZM154.5 90V104.5H140V90H154.5ZM154.5 75V89.5H140V75H154.5ZM139.5 75H125V89.5H139.5V75ZM139.5 90H125V104.5H139.5V90ZM124.5 90V104.5H110V90H124.5ZM124.5 75V89.5H110V75H124.5ZM109.5 75H95V89.5H109.5V75ZM109.5 90H95V104.5H109.5V90ZM94.5 90V104.5H80V90H94.5ZM94.5 75V89.5H80V75H94.5ZM499.5 165V179.5H485V165H499.5ZM484.5 194.5V180H470V194.5H484.5ZM469.5 194.5V180H455V194.5H469.5ZM454.5 194.5V180H440V194.5H454.5ZM439.5 194.5V180H425V194.5H439.5ZM424.5 194.5V180H410V194.5H424.5ZM409.5 194.5V180H395V194.5H409.5ZM394.5 194.5V180H380V194.5H394.5ZM379.5 194.5V180H365V194.5H379.5ZM364.5 194.5V180H350V194.5H364.5ZM349.5 194.5V180H335V194.5H349.5ZM334.5 194.5V180H320V194.5H334.5ZM319.5 194.5V180H305V194.5H319.5ZM304.5 194.5V180H290V194.5H304.5ZM289.5 194.5V180H275V194.5H289.5ZM274.5 194.5V180H260V194.5H274.5ZM259.5 194.5V180H245V194.5H259.5ZM244.5 194.5V180H230V194.5H244.5ZM229.5 194.5V180H215V194.5H229.5ZM214.5 194.5V180H200V194.5H214.5ZM199.5 194.5V180H185V194.5H199.5ZM184.5 194.5V180H170V194.5H184.5ZM169.5 194.5V180H155V194.5H169.5ZM154.5 194.5V180H140V194.5H154.5ZM139.5 194.5V180H125V194.5H139.5ZM124.5 194.5V180H110V194.5H124.5ZM109.5 194.5V180H95V194.5H109.5ZM94.5 194.5V180H80V194.5H94.5ZM94.5 179.5H80V165H94.5V179.5ZM95 165V179.5H109.5V165H95ZM124.5 179.5H110V165H124.5V179.5ZM125 165V179.5H139.5V165H125ZM154.5 179.5H140V165H154.5V179.5ZM155 165V179.5H169.5V165H155ZM184.5 179.5H170V165H184.5V179.5ZM185 165V179.5H199.5V165H185ZM214.5 179.5H200V165H214.5V179.5ZM215 165V179.5H229.5V165H215ZM244.5 179.5H230V165H244.5V179.5ZM245 165V179.5H259.5V165H245ZM274.5 179.5H260V165H274.5V179.5ZM275 165V179.5H289.5V165H275ZM304.5 179.5H290V165H304.5V179.5ZM305 165V179.5H319.5V165H305ZM320 165V179.5H334.5V165H320ZM335 165V179.5H349.5V165H335ZM350 165V179.5H364.5V165H350ZM365 165V179.5H379.5V165H365ZM380 165V179.5H394.5V165H380ZM395 165V179.5H409.5V165H395ZM424.5 179.5H410V165H424.5V179.5ZM425 165V179.5H439.5V165H425ZM454.5 179.5H440V165H454.5V179.5ZM455 165V179.5H469.5V165H455ZM484.5 179.5H470V165H484.5V179.5ZM499.5 180H485V194.5H499.5V180ZM499.5 135H485V149.5H499.5V135ZM499.5 150H485V164.5H499.5V150ZM484.5 150V164.5H470V150H484.5ZM484.5 135V149.5H470V135H484.5ZM469.5 135H455V149.5H469.5V135ZM469.5 150H455V164.5H469.5V150ZM454.5 150V164.5H440V150H454.5ZM454.5 135V149.5H440V135H454.5ZM439.5 135H425V149.5H439.5V135ZM439.5 150H425V164.5H439.5V150ZM424.5 164.5H410V150H424.5V164.5ZM409.5 164.5V150H395V164.5H409.5ZM424.5 149.5H410V135H424.5V149.5ZM409.5 149.5V135H395V149.5H409.5ZM394.5 135H380V149.5H394.5V135ZM394.5 150H380V164.5H394.5V150ZM379.5 164.5V150H365V164.5H379.5ZM379.5 149.5V135H365V149.5H379.5ZM364.5 135H350V149.5H364.5V135ZM364.5 150H350V164.5H364.5V150ZM349.5 164.5V150H335V164.5H349.5ZM349.5 149.5V135H335V149.5H349.5ZM334.5 135H320V149.5H334.5V135ZM334.5 150H320V164.5H334.5V150ZM319.5 164.5V150H305V164.5H319.5ZM319.5 149.5V135H305V149.5H319.5ZM304.5 150V164.5H290V150H304.5ZM304.5 135V149.5H290V135H304.5ZM289.5 135H275V149.5H289.5V135ZM289.5 150H275V164.5H289.5V150ZM274.5 150V164.5H260V150H274.5ZM274.5 135V149.5H260V135H274.5ZM259.5 135H245V149.5H259.5V135ZM259.5 150H245V164.5H259.5V150ZM244.5 150V164.5H230V150H244.5ZM244.5 135V149.5H230V135H244.5ZM229.5 135H215V149.5H229.5V135ZM229.5 150H215V164.5H229.5V150ZM214.5 150V164.5H200V150H214.5ZM214.5 135V149.5H200V135H214.5ZM199.5 135H185V149.5H199.5V135ZM199.5 150H185V164.5H199.5V150ZM184.5 150V164.5H170V150H184.5ZM184.5 135V149.5H170V135H184.5ZM169.5 135H155V149.5H169.5V135ZM169.5 150H155V164.5H169.5V150ZM154.5 150V164.5H140V150H154.5ZM154.5 135V149.5H140V135H154.5ZM139.5 135H125V149.5H139.5V135ZM139.5 150H125V164.5H139.5V150ZM124.5 150V164.5H110V150H124.5ZM124.5 135V149.5H110V135H124.5ZM109.5 135H95V149.5H109.5V135ZM109.5 150H95V164.5H109.5V150ZM94.5 150V164.5H80V150H94.5ZM94.5 135V149.5H80V135H94.5ZM499.5 195H485V209.5H499.5V195ZM499.5 210H485V224.5H499.5V210ZM484.5 210V224.5H470V210H484.5ZM484.5 195V209.5H470V195H484.5ZM469.5 195H455V209.5H469.5V195ZM469.5 210H455V224.5H469.5V210ZM454.5 210V224.5H440V210H454.5ZM454.5 195V209.5H440V195H454.5ZM439.5 195H425V209.5H439.5V195ZM439.5 210H425V224.5H439.5V210ZM424.5 224.5H410V210H424.5V224.5ZM409.5 224.5V210H395V224.5H409.5ZM424.5 209.5H410V195H424.5V209.5ZM409.5 209.5V195H395V209.5H409.5ZM394.5 195H380V209.5H394.5V195ZM394.5 210H380V224.5H394.5V210ZM379.5 224.5V210H365V224.5H379.5ZM379.5 209.5V195H365V209.5H379.5ZM364.5 195H350V209.5H364.5V195ZM364.5 210H350V224.5H364.5V210ZM349.5 224.5V210H335V224.5H349.5ZM349.5 209.5V195H335V209.5H349.5ZM334.5 195H320V209.5H334.5V195ZM334.5 210H320V224.5H334.5V210ZM319.5 224.5V210H305V224.5H319.5ZM319.5 209.5V195H305V209.5H319.5ZM304.5 210V224.5H290V210H304.5ZM304.5 195V209.5H290V195H304.5ZM289.5 195H275V209.5H289.5V195ZM289.5 210H275V224.5H289.5V210ZM274.5 210V224.5H260V210H274.5ZM274.5 195V209.5H260V195H274.5ZM259.5 195H245V209.5H259.5V195ZM259.5 210H245V224.5H259.5V210ZM244.5 210V224.5H230V210H244.5ZM244.5 195V209.5H230V195H244.5ZM229.5 195H215V209.5H229.5V195ZM229.5 210H215V224.5H229.5V210ZM214.5 210V224.5H200V210H214.5ZM214.5 195V209.5H200V195H214.5ZM199.5 195H185V209.5H199.5V195ZM199.5 210H185V224.5H199.5V210ZM184.5 210V224.5H170V210H184.5ZM184.5 195V209.5H170V195H184.5ZM169.5 195H155V209.5H169.5V195ZM169.5 210H155V224.5H169.5V210ZM154.5 210V224.5H140V210H154.5ZM154.5 195V209.5H140V195H154.5ZM139.5 195H125V209.5H139.5V195ZM139.5 210H125V224.5H139.5V210ZM124.5 210V224.5H110V210H124.5ZM124.5 195V209.5H110V195H124.5ZM109.5 195H95V209.5H109.5V195ZM109.5 210H95V224.5H109.5V210ZM94.5 210V224.5H80V210H94.5ZM94.5 195V209.5H80V195H94.5ZM499.5 285V299.5H485V285H499.5ZM484.5 314.5V300H470V314.5H484.5ZM469.5 314.5V300H455V314.5H469.5ZM454.5 314.5V300H440V314.5H454.5ZM439.5 314.5V300H425V314.5H439.5ZM424.5 314.5V300H410V314.5H424.5ZM409.5 314.5V300H395V314.5H409.5ZM394.5 314.5V300H380V314.5H394.5ZM379.5 314.5V300H365V314.5H379.5ZM364.5 314.5V300H350V314.5H364.5ZM349.5 314.5V300H335V314.5H349.5ZM334.5 314.5V300H320V314.5H334.5ZM319.5 314.5V300H305V314.5H319.5ZM304.5 314.5V300H290V314.5H304.5ZM289.5 314.5V300H275V314.5H289.5ZM274.5 314.5V300H260V314.5H274.5ZM259.5 314.5V300H245V314.5H259.5ZM244.5 314.5V300H230V314.5H244.5ZM229.5 314.5V300H215V314.5H229.5ZM214.5 314.5V300H200V314.5H214.5ZM199.5 314.5V300H185V314.5H199.5ZM184.5 314.5V300H170V314.5H184.5ZM169.5 314.5V300H155V314.5H169.5ZM154.5 314.5V300H140V314.5H154.5ZM139.5 314.5V300H125V314.5H139.5ZM124.5 314.5V300H110V314.5H124.5ZM109.5 314.5V300H95V314.5H109.5ZM94.5 314.5V300H80V314.5H94.5ZM94.5 299.5H80V285H94.5V299.5ZM95 285V299.5H109.5V285H95ZM124.5 299.5H110V285H124.5V299.5ZM125 285V299.5H139.5V285H125ZM154.5 299.5H140V285H154.5V299.5ZM155 285V299.5H169.5V285H155ZM184.5 299.5H170V285H184.5V299.5ZM185 285V299.5H199.5V285H185ZM214.5 299.5H200V285H214.5V299.5ZM215 285V299.5H229.5V285H215ZM244.5 299.5H230V285H244.5V299.5ZM245 285V299.5H259.5V285H245ZM274.5 299.5H260V285H274.5V299.5ZM275 285V299.5H289.5V285H275ZM304.5 299.5H290V285H304.5V299.5ZM305 285V299.5H319.5V285H305ZM320 285V299.5H334.5V285H320ZM335 285V299.5H349.5V285H335ZM350 285V299.5H364.5V285H350ZM365 285V299.5H379.5V285H365ZM380 285V299.5H394.5V285H380ZM395 285V299.5H409.5V285H395ZM424.5 299.5H410V285H424.5V299.5ZM425 285V299.5H439.5V285H425ZM454.5 299.5H440V285H454.5V299.5ZM455 285V299.5H469.5V285H455ZM484.5 299.5H470V285H484.5V299.5ZM499.5 300H485V314.5H499.5V300ZM499.5 255H485V269.5H499.5V255ZM499.5 270H485V284.5H499.5V270ZM484.5 270V284.5H470V270H484.5ZM484.5 255V269.5H470V255H484.5ZM469.5 255H455V269.5H469.5V255ZM469.5 270H455V284.5H469.5V270ZM454.5 270V284.5H440V270H454.5ZM454.5 255V269.5H440V255H454.5ZM439.5 255H425V269.5H439.5V255ZM439.5 270H425V284.5H439.5V270ZM424.5 284.5H410V270H424.5V284.5ZM409.5 284.5V270H395V284.5H409.5ZM424.5 269.5H410V255H424.5V269.5ZM409.5 269.5V255H395V269.5H409.5ZM394.5 255H380V269.5H394.5V255ZM394.5 270H380V284.5H394.5V270ZM379.5 284.5V270H365V284.5H379.5ZM379.5 269.5V255H365V269.5H379.5ZM364.5 255H350V269.5H364.5V255ZM364.5 270H350V284.5H364.5V270ZM349.5 284.5V270H335V284.5H349.5ZM349.5 269.5V255H335V269.5H349.5ZM334.5 255H320V269.5H334.5V255ZM334.5 270H320V284.5H334.5V270ZM319.5 284.5V270H305V284.5H319.5ZM319.5 269.5V255H305V269.5H319.5ZM304.5 270V284.5H290V270H304.5ZM304.5 255V269.5H290V255H304.5ZM289.5 255H275V269.5H289.5V255ZM289.5 270H275V284.5H289.5V270ZM274.5 270V284.5H260V270H274.5ZM274.5 255V269.5H260V255H274.5ZM259.5 255H245V269.5H259.5V255ZM259.5 270H245V284.5H259.5V270ZM244.5 270V284.5H230V270H244.5ZM244.5 255V269.5H230V255H244.5ZM229.5 255H215V269.5H229.5V255ZM229.5 270H215V284.5H229.5V270ZM214.5 270V284.5H200V270H214.5ZM214.5 255V269.5H200V255H214.5ZM199.5 255H185V269.5H199.5V255ZM199.5 270H185V284.5H199.5V270ZM184.5 270V284.5H170V270H184.5ZM184.5 255V269.5H170V255H184.5ZM169.5 255H155V269.5H169.5V255ZM169.5 270H155V284.5H169.5V270ZM154.5 270V284.5H140V270H154.5ZM154.5 255V269.5H140V255H154.5ZM139.5 255H125V269.5H139.5V255ZM139.5 270H125V284.5H139.5V270ZM124.5 270V284.5H110V270H124.5ZM124.5 255V269.5H110V255H124.5ZM109.5 255H95V269.5H109.5V255ZM109.5 270H95V284.5H109.5V270ZM94.5 270V284.5H80V270H94.5ZM94.5 255V269.5H80V255H94.5ZM499.5 315H485V329.5H499.5V315ZM499.5 330H485V344.5H499.5V330ZM484.5 330V344.5H470V330H484.5ZM484.5 315V329.5H470V315H484.5ZM469.5 315H455V329.5H469.5V315ZM469.5 330H455V344.5H469.5V330ZM454.5 330V344.5H440V330H454.5ZM454.5 315V329.5H440V315H454.5ZM439.5 315H425V329.5H439.5V315ZM439.5 330H425V344.5H439.5V330ZM424.5 344.5H410V330H424.5V344.5ZM409.5 344.5V330H395V344.5H409.5ZM424.5 329.5H410V315H424.5V329.5ZM409.5 329.5V315H395V329.5H409.5ZM394.5 315H380V329.5H394.5V315ZM394.5 330H380V344.5H394.5V330ZM379.5 344.5V330H365V344.5H379.5ZM379.5 329.5V315H365V329.5H379.5ZM364.5 315H350V329.5H364.5V315ZM364.5 330H350V344.5H364.5V330ZM349.5 344.5V330H335V344.5H349.5ZM349.5 329.5V315H335V329.5H349.5ZM334.5 315H320V329.5H334.5V315ZM334.5 330H320V344.5H334.5V330ZM319.5 344.5V330H305V344.5H319.5ZM319.5 329.5V315H305V329.5H319.5ZM304.5 330V344.5H290V330H304.5ZM304.5 315V329.5H290V315H304.5ZM289.5 315H275V329.5H289.5V315ZM289.5 330H275V344.5H289.5V330ZM274.5 330V344.5H260V330H274.5ZM274.5 315V329.5H260V315H274.5ZM259.5 315H245V329.5H259.5V315ZM259.5 330H245V344.5H259.5V330ZM244.5 330V344.5H230V330H244.5ZM244.5 315V329.5H230V315H244.5ZM229.5 315H215V329.5H229.5V315ZM229.5 330H215V344.5H229.5V330ZM214.5 330V344.5H200V330H214.5ZM214.5 315V329.5H200V315H214.5ZM199.5 315H185V329.5H199.5V315ZM199.5 330H185V344.5H199.5V330ZM184.5 330V344.5H170V330H184.5ZM184.5 315V329.5H170V315H184.5ZM169.5 315H155V329.5H169.5V315ZM169.5 330H155V344.5H169.5V330ZM154.5 330V344.5H140V330H154.5ZM154.5 315V329.5H140V315H154.5ZM139.5 315H125V329.5H139.5V315ZM139.5 330H125V344.5H139.5V330ZM124.5 330V344.5H110V330H124.5ZM124.5 315V329.5H110V315H124.5ZM109.5 315H95V329.5H109.5V315ZM109.5 330H95V344.5H109.5V330ZM94.5 330V344.5H80V330H94.5ZM94.5 315V329.5H80V315H94.5ZM499.5 585V599.5H485V585H499.5ZM484.5 614.5V600H470V614.5H484.5ZM469.5 614.5V600H455V614.5H469.5ZM454.5 614.5V600H440V614.5H454.5ZM439.5 614.5V600H425V614.5H439.5ZM424.5 614.5V600H410V614.5H424.5ZM409.5 614.5V600H395V614.5H409.5ZM394.5 614.5V600H380V614.5H394.5ZM379.5 614.5V600H365V614.5H379.5ZM364.5 614.5V600H350V614.5H364.5ZM349.5 614.5V600H335V614.5H349.5ZM334.5 614.5V600H320V614.5H334.5ZM319.5 614.5V600H305V614.5H319.5ZM304.5 614.5V600H290V614.5H304.5ZM289.5 614.5V600H275V614.5H289.5ZM274.5 614.5V600H260V614.5H274.5ZM259.5 614.5V600H245V614.5H259.5ZM244.5 614.5V600H230V614.5H244.5ZM229.5 614.5V600H215V614.5H229.5ZM214.5 614.5V600H200V614.5H214.5ZM199.5 614.5V600H185V614.5H199.5ZM184.5 614.5V600H170V614.5H184.5ZM169.5 614.5V600H155V614.5H169.5ZM154.5 614.5V600H140V614.5H154.5ZM139.5 614.5V600H125V614.5H139.5ZM124.5 614.5V600H110V614.5H124.5ZM109.5 614.5V600H95V614.5H109.5ZM94.5 614.5V600H80V614.5H94.5ZM94.5 599.5H80V585H94.5V599.5ZM95 585V599.5H109.5V585H95ZM124.5 599.5H110V585H124.5V599.5ZM125 585V599.5H139.5V585H125ZM154.5 599.5H140V585H154.5V599.5ZM155 585V599.5H169.5V585H155ZM184.5 599.5H170V585H184.5V599.5ZM185 585V599.5H199.5V585H185ZM214.5 599.5H200V585H214.5V599.5ZM215 585V599.5H229.5V585H215ZM244.5 599.5H230V585H244.5V599.5ZM245 585V599.5H259.5V585H245ZM274.5 599.5H260V585H274.5V599.5ZM275 585V599.5H289.5V585H275ZM304.5 599.5H290V585H304.5V599.5ZM305 585V599.5H319.5V585H305ZM320 585V599.5H334.5V585H320ZM335 585V599.5H349.5V585H335ZM350 585V599.5H364.5V585H350ZM365 585V599.5H379.5V585H365ZM380 585V599.5H394.5V585H380ZM395 585V599.5H409.5V585H395ZM424.5 599.5H410V585H424.5V599.5ZM425 585V599.5H439.5V585H425ZM454.5 599.5H440V585H454.5V599.5ZM455 585V599.5H469.5V585H455ZM484.5 599.5H470V585H484.5V599.5ZM499.5 600H485V614.5H499.5V600ZM94.5 479.5V465H80V479.5H94.5ZM109.5 479.5V465H95V479.5H109.5ZM124.5 479.5V465H110V479.5H124.5ZM139.5 479.5V465H125V479.5H139.5ZM154.5 479.5V465H140V479.5H154.5ZM169.5 479.5V465H155V479.5H169.5ZM184.5 479.5V465H170V479.5H184.5ZM199.5 479.5V465H185V479.5H199.5ZM214.5 479.5V465H200V479.5H214.5ZM229.5 479.5V465H215V479.5H229.5ZM244.5 479.5V465H230V479.5H244.5ZM259.5 479.5V465H245V479.5H259.5ZM274.5 479.5V465H260V479.5H274.5ZM289.5 479.5V465H275V479.5H289.5ZM304.5 479.5V465H290V479.5H304.5ZM319.5 479.5V465H305V479.5H319.5ZM334.5 479.5V465H320V479.5H334.5ZM349.5 479.5V465H335V479.5H349.5ZM364.5 479.5V465H350V479.5H364.5ZM379.5 479.5V465H365V479.5H379.5ZM394.5 479.5V465H380V479.5H394.5ZM409.5 479.5V465H395V479.5H409.5ZM424.5 479.5H410V465H424.5V479.5ZM439.5 479.5V465H425V479.5H439.5ZM454.5 479.5V465H440V479.5H454.5ZM469.5 479.5V465H455V479.5H469.5ZM484.5 479.5V465H470V479.5H484.5ZM499.5 479.5V465H485V479.5H499.5ZM499.5 405V419.5H485V405H499.5ZM484.5 434.5V420H470V434.5H484.5ZM469.5 434.5V420H455V434.5H469.5ZM454.5 434.5V420H440V434.5H454.5ZM439.5 434.5V420H425V434.5H439.5ZM424.5 434.5V420H410V434.5H424.5ZM409.5 434.5V420H395V434.5H409.5ZM394.5 434.5V420H380V434.5H394.5ZM379.5 434.5V420H365V434.5H379.5ZM364.5 434.5V420H350V434.5H364.5ZM349.5 434.5V420H335V434.5H349.5ZM334.5 434.5V420H320V434.5H334.5ZM319.5 434.5V420H305V434.5H319.5ZM304.5 434.5V420H290V434.5H304.5ZM289.5 434.5V420H275V434.5H289.5ZM274.5 434.5V420H260V434.5H274.5ZM259.5 434.5V420H245V434.5H259.5ZM244.5 434.5V420H230V434.5H244.5ZM229.5 434.5V420H215V434.5H229.5ZM214.5 434.5V420H200V434.5H214.5ZM199.5 434.5V420H185V434.5H199.5ZM184.5 434.5V420H170V434.5H184.5ZM169.5 434.5V420H155V434.5H169.5ZM154.5 434.5V420H140V434.5H154.5ZM139.5 434.5V420H125V434.5H139.5ZM124.5 434.5V420H110V434.5H124.5ZM109.5 434.5V420H95V434.5H109.5ZM94.5 434.5V420H80V434.5H94.5ZM94.5 419.5H80V405H94.5V419.5ZM95 405V419.5H109.5V405H95ZM124.5 419.5H110V405H124.5V419.5ZM125 405V419.5H139.5V405H125ZM154.5 419.5H140V405H154.5V419.5ZM155 405V419.5H169.5V405H155ZM184.5 419.5H170V405H184.5V419.5ZM185 405V419.5H199.5V405H185ZM214.5 419.5H200V405H214.5V419.5ZM215 405V419.5H229.5V405H215ZM244.5 419.5H230V405H244.5V419.5ZM245 405V419.5H259.5V405H245ZM274.5 419.5H260V405H274.5V419.5ZM275 405V419.5H289.5V405H275ZM304.5 419.5H290V405H304.5V419.5ZM305 405V419.5H319.5V405H305ZM320 405V419.5H334.5V405H320ZM335 405V419.5H349.5V405H335ZM350 405V419.5H364.5V405H350ZM365 405V419.5H379.5V405H365ZM380 405V419.5H394.5V405H380ZM395 405V419.5H409.5V405H395ZM424.5 419.5H410V405H424.5V419.5ZM425 405V419.5H439.5V405H425ZM454.5 419.5H440V405H454.5V419.5ZM455 405V419.5H469.5V405H455ZM484.5 419.5H470V405H484.5V419.5ZM499.5 420H485V434.5H499.5V420ZM499.5 375H485V389.5H499.5V375ZM499.5 390H485V404.5H499.5V390ZM484.5 390V404.5H470V390H484.5ZM484.5 375V389.5H470V375H484.5ZM469.5 375H455V389.5H469.5V375ZM469.5 390H455V404.5H469.5V390ZM454.5 390V404.5H440V390H454.5ZM454.5 375V389.5H440V375H454.5ZM439.5 375H425V389.5H439.5V375ZM439.5 390H425V404.5H439.5V390ZM424.5 404.5H410V390H424.5V404.5ZM409.5 404.5V390H395V404.5H409.5ZM424.5 389.5H410V375H424.5V389.5ZM409.5 389.5V375H395V389.5H409.5ZM394.5 375H380V389.5H394.5V375ZM394.5 390H380V404.5H394.5V390ZM379.5 404.5V390H365V404.5H379.5ZM379.5 389.5V375H365V389.5H379.5ZM364.5 375H350V389.5H364.5V375ZM364.5 390H350V404.5H364.5V390ZM349.5 404.5V390H335V404.5H349.5ZM349.5 389.5V375H335V389.5H349.5ZM334.5 375H320V389.5H334.5V375ZM334.5 390H320V404.5H334.5V390ZM319.5 404.5V390H305V404.5H319.5ZM319.5 389.5V375H305V389.5H319.5ZM304.5 390V404.5H290V390H304.5ZM304.5 375V389.5H290V375H304.5ZM289.5 375H275V389.5H289.5V375ZM289.5 390H275V404.5H289.5V390ZM274.5 390V404.5H260V390H274.5ZM274.5 375V389.5H260V375H274.5ZM259.5 375H245V389.5H259.5V375ZM259.5 390H245V404.5H259.5V390ZM244.5 390V404.5H230V390H244.5ZM244.5 375V389.5H230V375H244.5ZM229.5 375H215V389.5H229.5V375ZM229.5 390H215V404.5H229.5V390ZM214.5 390V404.5H200V390H214.5ZM214.5 375V389.5H200V375H214.5ZM199.5 375H185V389.5H199.5V375ZM199.5 390H185V404.5H199.5V390ZM184.5 390V404.5H170V390H184.5ZM184.5 375V389.5H170V375H184.5ZM169.5 375H155V389.5H169.5V375ZM169.5 390H155V404.5H169.5V390ZM154.5 390V404.5H140V390H154.5ZM154.5 375V389.5H140V375H154.5ZM139.5 375H125V389.5H139.5V375ZM139.5 390H125V404.5H139.5V390ZM124.5 390V404.5H110V390H124.5ZM124.5 375V389.5H110V375H124.5ZM109.5 375H95V389.5H109.5V375ZM109.5 390H95V404.5H109.5V390ZM94.5 390V404.5H80V390H94.5ZM94.5 375V389.5H80V375H94.5ZM499.5 435H485V449.5H499.5V435ZM499.5 450H485V464.5H499.5V450ZM484.5 450V464.5H470V450H484.5ZM484.5 435V449.5H470V435H484.5ZM469.5 435H455V449.5H469.5V435ZM469.5 450H455V464.5H469.5V450ZM454.5 450V464.5H440V450H454.5ZM454.5 435V449.5H440V435H454.5ZM439.5 435H425V449.5H439.5V435ZM439.5 450H425V464.5H439.5V450ZM424.5 464.5H410V450H424.5V464.5ZM409.5 464.5V450H395V464.5H409.5ZM424.5 449.5H410V435H424.5V449.5ZM409.5 449.5V435H395V449.5H409.5ZM394.5 435H380V449.5H394.5V435ZM394.5 450H380V464.5H394.5V450ZM379.5 464.5V450H365V464.5H379.5ZM379.5 449.5V435H365V449.5H379.5ZM364.5 435H350V449.5H364.5V435ZM364.5 450H350V464.5H364.5V450ZM349.5 464.5V450H335V464.5H349.5ZM349.5 449.5V435H335V449.5H349.5ZM334.5 435H320V449.5H334.5V435ZM334.5 450H320V464.5H334.5V450ZM319.5 464.5V450H305V464.5H319.5ZM319.5 449.5V435H305V449.5H319.5ZM304.5 450V464.5H290V450H304.5ZM304.5 435V449.5H290V435H304.5ZM289.5 435H275V449.5H289.5V435ZM289.5 450H275V464.5H289.5V450ZM274.5 450V464.5H260V450H274.5ZM274.5 435V449.5H260V435H274.5ZM259.5 435H245V449.5H259.5V435ZM259.5 450H245V464.5H259.5V450ZM244.5 450V464.5H230V450H244.5ZM244.5 435V449.5H230V435H244.5ZM229.5 435H215V449.5H229.5V435ZM229.5 450H215V464.5H229.5V450ZM214.5 450V464.5H200V450H214.5ZM214.5 435V449.5H200V435H214.5ZM199.5 435H185V449.5H199.5V435ZM199.5 450H185V464.5H199.5V450ZM184.5 450V464.5H170V450H184.5ZM184.5 435V449.5H170V435H184.5ZM169.5 435H155V449.5H169.5V435ZM169.5 450H155V464.5H169.5V450ZM154.5 450V464.5H140V450H154.5ZM154.5 435V449.5H140V435H154.5ZM139.5 435H125V449.5H139.5V435ZM139.5 450H125V464.5H139.5V450ZM124.5 450V464.5H110V450H124.5ZM124.5 435V449.5H110V435H124.5ZM109.5 435H95V449.5H109.5V435ZM109.5 450H95V464.5H109.5V450ZM94.5 450V464.5H80V450H94.5ZM94.5 435V449.5H80V435H94.5ZM499.5 525V539.5H485V525H499.5ZM484.5 554.5V540H470V554.5H484.5ZM469.5 554.5V540H455V554.5H469.5ZM454.5 554.5V540H440V554.5H454.5ZM439.5 554.5V540H425V554.5H439.5ZM424.5 554.5V540H410V554.5H424.5ZM409.5 554.5V540H395V554.5H409.5ZM394.5 554.5V540H380V554.5H394.5ZM379.5 554.5V540H365V554.5H379.5ZM364.5 554.5V540H350V554.5H364.5ZM349.5 554.5V540H335V554.5H349.5ZM334.5 554.5V540H320V554.5H334.5ZM319.5 554.5V540H305V554.5H319.5ZM304.5 554.5V540H290V554.5H304.5ZM289.5 554.5V540H275V554.5H289.5ZM274.5 554.5V540H260V554.5H274.5ZM259.5 554.5V540H245V554.5H259.5ZM244.5 554.5V540H230V554.5H244.5ZM229.5 554.5V540H215V554.5H229.5ZM214.5 554.5V540H200V554.5H214.5ZM199.5 554.5V540H185V554.5H199.5ZM184.5 554.5V540H170V554.5H184.5ZM169.5 554.5V540H155V554.5H169.5ZM154.5 554.5V540H140V554.5H154.5ZM139.5 554.5V540H125V554.5H139.5ZM124.5 554.5V540H110V554.5H124.5ZM109.5 554.5V540H95V554.5H109.5ZM94.5 554.5V540H80V554.5H94.5ZM94.5 539.5H80V525H94.5V539.5ZM95 525V539.5H109.5V525H95ZM124.5 539.5H110V525H124.5V539.5ZM125 525V539.5H139.5V525H125ZM154.5 539.5H140V525H154.5V539.5ZM155 525V539.5H169.5V525H155ZM184.5 539.5H170V525H184.5V539.5ZM185 525V539.5H199.5V525H185ZM214.5 539.5H200V525H214.5V539.5ZM215 525V539.5H229.5V525H215ZM244.5 539.5H230V525H244.5V539.5ZM245 525V539.5H259.5V525H245ZM274.5 539.5H260V525H274.5V539.5ZM275 525V539.5H289.5V525H275ZM304.5 539.5H290V525H304.5V539.5ZM305 525V539.5H319.5V525H305ZM320 525V539.5H334.5V525H320ZM335 525V539.5H349.5V525H335ZM350 525V539.5H364.5V525H350ZM365 525V539.5H379.5V525H365ZM380 525V539.5H394.5V525H380ZM395 525V539.5H409.5V525H395ZM424.5 539.5H410V525H424.5V539.5ZM425 525V539.5H439.5V525H425ZM454.5 539.5H440V525H454.5V539.5ZM455 525V539.5H469.5V525H455ZM484.5 539.5H470V525H484.5V539.5ZM499.5 540H485V554.5H499.5V540ZM499.5 495H485V509.5H499.5V495ZM499.5 510H485V524.5H499.5V510ZM484.5 510V524.5H470V510H484.5ZM484.5 495V509.5H470V495H484.5ZM469.5 495H455V509.5H469.5V495ZM469.5 510H455V524.5H469.5V510ZM454.5 510V524.5H440V510H454.5ZM454.5 495V509.5H440V495H454.5ZM439.5 495H425V509.5H439.5V495ZM439.5 510H425V524.5H439.5V510ZM424.5 524.5H410V510H424.5V524.5ZM409.5 524.5V510H395V524.5H409.5ZM424.5 509.5H410V495H424.5V509.5ZM409.5 509.5V495H395V509.5H409.5ZM394.5 495H380V509.5H394.5V495ZM394.5 510H380V524.5H394.5V510ZM379.5 524.5V510H365V524.5H379.5ZM379.5 509.5V495H365V509.5H379.5ZM364.5 495H350V509.5H364.5V495ZM364.5 510H350V524.5H364.5V510ZM349.5 524.5V510H335V524.5H349.5ZM349.5 509.5V495H335V509.5H349.5ZM334.5 495H320V509.5H334.5V495ZM334.5 510H320V524.5H334.5V510ZM319.5 524.5V510H305V524.5H319.5ZM319.5 509.5V495H305V509.5H319.5ZM304.5 510V524.5H290V510H304.5ZM304.5 495V509.5H290V495H304.5ZM289.5 495H275V509.5H289.5V495ZM289.5 510H275V524.5H289.5V510ZM274.5 510V524.5H260V510H274.5ZM274.5 495V509.5H260V495H274.5ZM259.5 495H245V509.5H259.5V495ZM259.5 510H245V524.5H259.5V510ZM244.5 510V524.5H230V510H244.5ZM244.5 495V509.5H230V495H244.5ZM229.5 495H215V509.5H229.5V495ZM229.5 510H215V524.5H229.5V510ZM214.5 510V524.5H200V510H214.5ZM214.5 495V509.5H200V495H214.5ZM199.5 495H185V509.5H199.5V495ZM199.5 510H185V524.5H199.5V510ZM184.5 510V524.5H170V510H184.5ZM184.5 495V509.5H170V495H184.5ZM169.5 495H155V509.5H169.5V495ZM169.5 510H155V524.5H169.5V510ZM154.5 510V524.5H140V510H154.5ZM154.5 495V509.5H140V495H154.5ZM139.5 495H125V509.5H139.5V495ZM139.5 510H125V524.5H139.5V510ZM124.5 510V524.5H110V510H124.5ZM124.5 495V509.5H110V495H124.5ZM109.5 495H95V509.5H109.5V495ZM109.5 510H95V524.5H109.5V510ZM94.5 510V524.5H80V510H94.5ZM94.5 495V509.5H80V495H94.5ZM499.5 555H485V569.5H499.5V555ZM499.5 570H485V584.5H499.5V570ZM484.5 570V584.5H470V570H484.5ZM484.5 555V569.5H470V555H484.5ZM469.5 555H455V569.5H469.5V555ZM469.5 570H455V584.5H469.5V570ZM454.5 570V584.5H440V570H454.5ZM454.5 555V569.5H440V555H454.5ZM439.5 555H425V569.5H439.5V555ZM439.5 570H425V584.5H439.5V570ZM424.5 584.5H410V570H424.5V584.5ZM409.5 584.5V570H395V584.5H409.5ZM424.5 569.5H410V555H424.5V569.5ZM409.5 569.5V555H395V569.5H409.5ZM394.5 555H380V569.5H394.5V555ZM394.5 570H380V584.5H394.5V570ZM379.5 584.5V570H365V584.5H379.5ZM379.5 569.5V555H365V569.5H379.5ZM364.5 555H350V569.5H364.5V555ZM364.5 570H350V584.5H364.5V570ZM349.5 584.5V570H335V584.5H349.5ZM349.5 569.5V555H335V569.5H349.5ZM334.5 555H320V569.5H334.5V555ZM334.5 570H320V584.5H334.5V570ZM319.5 584.5V570H305V584.5H319.5ZM319.5 569.5V555H305V569.5H319.5ZM304.5 570V584.5H290V570H304.5ZM304.5 555V569.5H290V555H304.5ZM289.5 555H275V569.5H289.5V555ZM289.5 570H275V584.5H289.5V570ZM274.5 570V584.5H260V570H274.5ZM274.5 555V569.5H260V555H274.5ZM259.5 555H245V569.5H259.5V555ZM259.5 570H245V584.5H259.5V570ZM244.5 570V584.5H230V570H244.5ZM244.5 555V569.5H230V555H244.5ZM229.5 555H215V569.5H229.5V555ZM229.5 570H215V584.5H229.5V570ZM214.5 570V584.5H200V570H214.5ZM214.5 555V569.5H200V555H214.5ZM199.5 555H185V569.5H199.5V555ZM199.5 570H185V584.5H199.5V570ZM184.5 570V584.5H170V570H184.5ZM184.5 555V569.5H170V555H184.5ZM169.5 555H155V569.5H169.5V555ZM169.5 570H155V584.5H169.5V570ZM154.5 570V584.5H140V570H154.5ZM154.5 555V569.5H140V555H154.5ZM139.5 555H125V569.5H139.5V555ZM139.5 570H125V584.5H139.5V570ZM124.5 570V584.5H110V570H124.5ZM124.5 555V569.5H110V555H124.5ZM109.5 555H95V569.5H109.5V555ZM109.5 570H95V584.5H109.5V570ZM94.5 570V584.5H80V570H94.5ZM94.5 555V569.5H80V555H94.5ZM80 720V734.5H94.5V720H80ZM94.5 719.5V705H80V719.5H94.5ZM95 720V734.5H109.5V720H95ZM109.5 719.5V705H95V719.5H109.5ZM110 720V734.5H124.5V720H110ZM124.5 719.5V705H110V719.5H124.5ZM125 720V734.5H139.5V720H125ZM139.5 719.5V705H125V719.5H139.5ZM140 720V734.5H154.5V720H140ZM154.5 719.5V705H140V719.5H154.5ZM155 720V734.5H169.5V720H155ZM169.5 719.5V705H155V719.5H169.5ZM170 720V734.5H184.5V720H170ZM184.5 719.5V705H170V719.5H184.5ZM185 720V734.5H199.5V720H185ZM199.5 719.5V705H185V719.5H199.5ZM200 720V734.5H214.5V720H200ZM214.5 719.5V705H200V719.5H214.5ZM215 720V734.5H229.5V720H215ZM229.5 719.5V705H215V719.5H229.5ZM230 720V734.5H244.5V720H230ZM244.5 719.5V705H230V719.5H244.5ZM245 720V734.5H259.5V720H245ZM259.5 719.5V705H245V719.5H259.5ZM260 720V734.5H274.5V720H260ZM274.5 719.5V705H260V719.5H274.5ZM275 720V734.5H289.5V720H275ZM289.5 719.5V705H275V719.5H289.5ZM290 720V734.5H304.5V720H290ZM304.5 719.5V705H290V719.5H304.5ZM305 720V734.5H319.5V720H305ZM319.5 719.5V705H305V719.5H319.5ZM320 720V734.5H334.5V720H320ZM334.5 719.5V705H320V719.5H334.5ZM335 720V734.5H349.5V720H335ZM349.5 719.5V705H335V719.5H349.5ZM350 720V734.5H364.5V720H350ZM364.5 719.5V705H350V719.5H364.5ZM365 720V734.5H379.5V720H365ZM379.5 719.5V705H365V719.5H379.5ZM380 720V734.5H394.5V720H380ZM394.5 719.5V705H380V719.5H394.5ZM395 720V734.5H409.5V720H395ZM409.5 719.5V705H395V719.5H409.5ZM410 720V734.5H424.5V720H410ZM424.5 719.5H410V705H424.5V719.5ZM425 720V734.5H439.5V720H425ZM439.5 719.5V705H425V719.5H439.5ZM440 720V734.5H454.5V720H440ZM454.5 719.5V705H440V719.5H454.5ZM455 720V734.5H469.5V720H455ZM469.5 719.5V705H455V719.5H469.5ZM470 720V734.5H484.5V720H470ZM484.5 719.5V705H470V719.5H484.5ZM485 720V734.5H499.5V720H485ZM499.5 719.5V705H485V719.5H499.5ZM499.5 645V659.5H485V645H499.5ZM484.5 674.5V660H470V674.5H484.5ZM469.5 674.5V660H455V674.5H469.5ZM454.5 674.5V660H440V674.5H454.5ZM439.5 674.5V660H425V674.5H439.5ZM424.5 674.5V660H410V674.5H424.5ZM409.5 674.5V660H395V674.5H409.5ZM394.5 674.5V660H380V674.5H394.5ZM379.5 674.5V660H365V674.5H379.5ZM364.5 674.5V660H350V674.5H364.5ZM349.5 674.5V660H335V674.5H349.5ZM334.5 674.5V660H320V674.5H334.5ZM319.5 674.5V660H305V674.5H319.5ZM304.5 674.5V660H290V674.5H304.5ZM289.5 674.5V660H275V674.5H289.5ZM274.5 674.5V660H260V674.5H274.5ZM259.5 674.5V660H245V674.5H259.5ZM244.5 674.5V660H230V674.5H244.5ZM229.5 674.5V660H215V674.5H229.5ZM214.5 674.5V660H200V674.5H214.5ZM199.5 674.5V660H185V674.5H199.5ZM184.5 674.5V660H170V674.5H184.5ZM169.5 674.5V660H155V674.5H169.5ZM154.5 674.5V660H140V674.5H154.5ZM139.5 674.5V660H125V674.5H139.5ZM124.5 674.5V660H110V674.5H124.5ZM109.5 674.5V660H95V674.5H109.5ZM94.5 674.5V660H80V674.5H94.5ZM94.5 659.5H80V645H94.5V659.5ZM95 645V659.5H109.5V645H95ZM124.5 659.5H110V645H124.5V659.5ZM125 645V659.5H139.5V645H125ZM154.5 659.5H140V645H154.5V659.5ZM155 645V659.5H169.5V645H155ZM184.5 659.5H170V645H184.5V659.5ZM185 645V659.5H199.5V645H185ZM214.5 659.5H200V645H214.5V659.5ZM215 645V659.5H229.5V645H215ZM244.5 659.5H230V645H244.5V659.5ZM245 645V659.5H259.5V645H245ZM274.5 659.5H260V645H274.5V659.5ZM275 645V659.5H289.5V645H275ZM304.5 659.5H290V645H304.5V659.5ZM305 645V659.5H319.5V645H305ZM320 645V659.5H334.5V645H320ZM335 645V659.5H349.5V645H335ZM350 645V659.5H364.5V645H350ZM365 645V659.5H379.5V645H365ZM380 645V659.5H394.5V645H380ZM395 645V659.5H409.5V645H395ZM424.5 659.5H410V645H424.5V659.5ZM425 645V659.5H439.5V645H425ZM454.5 659.5H440V645H454.5V659.5ZM455 645V659.5H469.5V645H455ZM484.5 659.5H470V645H484.5V659.5ZM499.5 660H485V674.5H499.5V660ZM499.5 615H485V629.5H499.5V615ZM499.5 630H485V644.5H499.5V630ZM484.5 630V644.5H470V630H484.5ZM484.5 615V629.5H470V615H484.5ZM469.5 615H455V629.5H469.5V615ZM469.5 630H455V644.5H469.5V630ZM454.5 630V644.5H440V630H454.5ZM454.5 615V629.5H440V615H454.5ZM439.5 615H425V629.5H439.5V615ZM439.5 630H425V644.5H439.5V630ZM424.5 644.5H410V630H424.5V644.5ZM409.5 644.5V630H395V644.5H409.5ZM424.5 629.5H410V615H424.5V629.5ZM409.5 629.5V615H395V629.5H409.5ZM394.5 615H380V629.5H394.5V615ZM394.5 630H380V644.5H394.5V630ZM379.5 644.5V630H365V644.5H379.5ZM379.5 629.5V615H365V629.5H379.5ZM364.5 615H350V629.5H364.5V615ZM364.5 630H350V644.5H364.5V630ZM349.5 644.5V630H335V644.5H349.5ZM349.5 629.5V615H335V629.5H349.5ZM334.5 615H320V629.5H334.5V615ZM334.5 630H320V644.5H334.5V630ZM319.5 644.5V630H305V644.5H319.5ZM319.5 629.5V615H305V629.5H319.5ZM304.5 630V644.5H290V630H304.5ZM304.5 615V629.5H290V615H304.5ZM289.5 615H275V629.5H289.5V615ZM289.5 630H275V644.5H289.5V630ZM274.5 630V644.5H260V630H274.5ZM274.5 615V629.5H260V615H274.5ZM259.5 615H245V629.5H259.5V615ZM259.5 630H245V644.5H259.5V630ZM244.5 630V644.5H230V630H244.5ZM244.5 615V629.5H230V615H244.5ZM229.5 615H215V629.5H229.5V615ZM229.5 630H215V644.5H229.5V630ZM214.5 630V644.5H200V630H214.5ZM214.5 615V629.5H200V615H214.5ZM199.5 615H185V629.5H199.5V615ZM199.5 630H185V644.5H199.5V630ZM184.5 630V644.5H170V630H184.5ZM184.5 615V629.5H170V615H184.5ZM169.5 615H155V629.5H169.5V615ZM169.5 630H155V644.5H169.5V630ZM154.5 630V644.5H140V630H154.5ZM154.5 615V629.5H140V615H154.5ZM139.5 615H125V629.5H139.5V615ZM139.5 630H125V644.5H139.5V630ZM124.5 630V644.5H110V630H124.5ZM124.5 615V629.5H110V615H124.5ZM109.5 615H95V629.5H109.5V615ZM109.5 630H95V644.5H109.5V630ZM94.5 630V644.5H80V630H94.5ZM94.5 615V629.5H80V615H94.5ZM499.5 675H485V689.5H499.5V675ZM499.5 690H485V704.5H499.5V690ZM484.5 690V704.5H470V690H484.5ZM484.5 675V689.5H470V675H484.5ZM469.5 675H455V689.5H469.5V675ZM469.5 690H455V704.5H469.5V690ZM454.5 690V704.5H440V690H454.5ZM454.5 675V689.5H440V675H454.5ZM439.5 675H425V689.5H439.5V675ZM439.5 690H425V704.5H439.5V690ZM424.5 704.5H410V690H424.5V704.5ZM409.5 704.5V690H395V704.5H409.5ZM424.5 689.5H410V675H424.5V689.5ZM409.5 689.5V675H395V689.5H409.5ZM394.5 675H380V689.5H394.5V675ZM394.5 690H380V704.5H394.5V690ZM379.5 704.5V690H365V704.5H379.5ZM379.5 689.5V675H365V689.5H379.5ZM364.5 675H350V689.5H364.5V675ZM364.5 690H350V704.5H364.5V690ZM349.5 704.5V690H335V704.5H349.5ZM349.5 689.5V675H335V689.5H349.5ZM334.5 675H320V689.5H334.5V675ZM334.5 690H320V704.5H334.5V690ZM319.5 704.5V690H305V704.5H319.5ZM319.5 689.5V675H305V689.5H319.5ZM304.5 690V704.5H290V690H304.5ZM304.5 675V689.5H290V675H304.5ZM289.5 675H275V689.5H289.5V675ZM289.5 690H275V704.5H289.5V690ZM274.5 690V704.5H260V690H274.5ZM274.5 675V689.5H260V675H274.5ZM259.5 675H245V689.5H259.5V675ZM259.5 690H245V704.5H259.5V690ZM244.5 690V704.5H230V690H244.5ZM244.5 675V689.5H230V675H244.5ZM229.5 675H215V689.5H229.5V675ZM229.5 690H215V704.5H229.5V690ZM214.5 690V704.5H200V690H214.5ZM214.5 675V689.5H200V675H214.5ZM199.5 675H185V689.5H199.5V675ZM199.5 690H185V704.5H199.5V690ZM184.5 690V704.5H170V690H184.5ZM184.5 675V689.5H170V675H184.5ZM169.5 675H155V689.5H169.5V675ZM169.5 690H155V704.5H169.5V690ZM154.5 690V704.5H140V690H154.5ZM154.5 675V689.5H140V675H154.5ZM139.5 675H125V689.5H139.5V675ZM139.5 690H125V704.5H139.5V690ZM124.5 690V704.5H110V690H124.5ZM124.5 675V689.5H110V675H124.5ZM109.5 675H95V689.5H109.5V675ZM109.5 690H95V704.5H109.5V690ZM94.5 690V704.5H80V690H94.5ZM94.5 675V689.5H80V675H94.5ZM499.5 765V779.5H485V765H499.5ZM484.5 794.5V780H470V794.5H484.5ZM469.5 794.5V780H455V794.5H469.5ZM454.5 794.5V780H440V794.5H454.5ZM439.5 794.5V780H425V794.5H439.5ZM424.5 794.5V780H410V794.5H424.5ZM409.5 794.5V780H395V794.5H409.5ZM394.5 794.5V780H380V794.5H394.5ZM379.5 794.5V780H365V794.5H379.5ZM364.5 794.5V780H350V794.5H364.5ZM349.5 794.5V780H335V794.5H349.5ZM334.5 794.5V780H320V794.5H334.5ZM319.5 794.5V780H305V794.5H319.5ZM304.5 794.5V780H290V794.5H304.5ZM289.5 794.5V780H275V794.5H289.5ZM274.5 794.5V780H260V794.5H274.5ZM259.5 794.5V780H245V794.5H259.5ZM244.5 794.5V780H230V794.5H244.5ZM229.5 794.5V780H215V794.5H229.5ZM214.5 794.5V780H200V794.5H214.5ZM199.5 794.5V780H185V794.5H199.5ZM184.5 794.5V780H170V794.5H184.5ZM169.5 794.5V780H155V794.5H169.5ZM154.5 794.5V780H140V794.5H154.5ZM139.5 794.5V780H125V794.5H139.5ZM124.5 794.5V780H110V794.5H124.5ZM109.5 794.5V780H95V794.5H109.5ZM94.5 794.5V780H80V794.5H94.5ZM94.5 779.5H80V765H94.5V779.5ZM95 765V779.5H109.5V765H95ZM124.5 779.5H110V765H124.5V779.5ZM125 765V779.5H139.5V765H125ZM154.5 779.5H140V765H154.5V779.5ZM155 765V779.5H169.5V765H155ZM184.5 779.5H170V765H184.5V779.5ZM185 765V779.5H199.5V765H185ZM214.5 779.5H200V765H214.5V779.5ZM215 765V779.5H229.5V765H215ZM244.5 779.5H230V765H244.5V779.5ZM245 765V779.5H259.5V765H245ZM274.5 779.5H260V765H274.5V779.5ZM275 765V779.5H289.5V765H275ZM304.5 779.5H290V765H304.5V779.5ZM305 765V779.5H319.5V765H305ZM320 765V779.5H334.5V765H320ZM335 765V779.5H349.5V765H335ZM350 765V779.5H364.5V765H350ZM365 765V779.5H379.5V765H365ZM380 765V779.5H394.5V765H380ZM395 765V779.5H409.5V765H395ZM424.5 779.5H410V765H424.5V779.5ZM425 765V779.5H439.5V765H425ZM454.5 779.5H440V765H454.5V779.5ZM455 765V779.5H469.5V765H455ZM484.5 779.5H470V765H484.5V779.5ZM499.5 780H485V794.5H499.5V780ZM499.5 735H485V749.5H499.5V735ZM499.5 750H485V764.5H499.5V750ZM484.5 750V764.5H470V750H484.5ZM484.5 735V749.5H470V735H484.5ZM469.5 735H455V749.5H469.5V735ZM469.5 750H455V764.5H469.5V750ZM454.5 750V764.5H440V750H454.5ZM454.5 735V749.5H440V735H454.5ZM439.5 735H425V749.5H439.5V735ZM439.5 750H425V764.5H439.5V750ZM424.5 764.5H410V750H424.5V764.5ZM409.5 764.5V750H395V764.5H409.5ZM424.5 749.5H410V735H424.5V749.5ZM409.5 749.5V735H395V749.5H409.5ZM394.5 735H380V749.5H394.5V735ZM394.5 750H380V764.5H394.5V750ZM379.5 764.5V750H365V764.5H379.5ZM379.5 749.5V735H365V749.5H379.5ZM364.5 735H350V749.5H364.5V735ZM364.5 750H350V764.5H364.5V750ZM349.5 764.5V750H335V764.5H349.5ZM349.5 749.5V735H335V749.5H349.5ZM334.5 735H320V749.5H334.5V735ZM334.5 750H320V764.5H334.5V750ZM319.5 764.5V750H305V764.5H319.5ZM319.5 749.5V735H305V749.5H319.5ZM304.5 750V764.5H290V750H304.5ZM304.5 735V749.5H290V735H304.5ZM289.5 735H275V749.5H289.5V735ZM289.5 750H275V764.5H289.5V750ZM274.5 750V764.5H260V750H274.5ZM274.5 735V749.5H260V735H274.5ZM259.5 735H245V749.5H259.5V735ZM259.5 750H245V764.5H259.5V750ZM244.5 750V764.5H230V750H244.5ZM244.5 735V749.5H230V735H244.5ZM229.5 735H215V749.5H229.5V735ZM229.5 750H215V764.5H229.5V750ZM214.5 750V764.5H200V750H214.5ZM214.5 735V749.5H200V735H214.5ZM199.5 735H185V749.5H199.5V735ZM199.5 750H185V764.5H199.5V750ZM184.5 750V764.5H170V750H184.5ZM184.5 735V749.5H170V735H184.5ZM169.5 735H155V749.5H169.5V735ZM169.5 750H155V764.5H169.5V750ZM154.5 750V764.5H140V750H154.5ZM154.5 735V749.5H140V735H154.5ZM139.5 735H125V749.5H139.5V735ZM139.5 750H125V764.5H139.5V750ZM124.5 750V764.5H110V750H124.5ZM124.5 735V749.5H110V735H124.5ZM109.5 735H95V749.5H109.5V735ZM109.5 750H95V764.5H109.5V750ZM94.5 750V764.5H80V750H94.5ZM94.5 735V749.5H80V735H94.5ZM499.5 795H485V809.5H499.5V795ZM499.5 810H485V824.5H499.5V810ZM499.5 825H485V839.5H499.5V825ZM484.5 825V839.5H470V825H484.5ZM484.5 810V824.5H470V810H484.5ZM484.5 795V809.5H470V795H484.5ZM469.5 795H455V809.5H469.5V795ZM469.5 810H455V824.5H469.5V810ZM469.5 825H455V839.5H469.5V825ZM454.5 825V839.5H440V825H454.5ZM454.5 810V824.5H440V810H454.5ZM454.5 795V809.5H440V795H454.5ZM439.5 795H425V809.5H439.5V795ZM439.5 810H425V824.5H439.5V810ZM439.5 825H425V839.5H439.5V825ZM424.5 839.5H410V825H424.5V839.5ZM409.5 839.5V825H395V839.5H409.5ZM424.5 824.5H410V810H424.5V824.5ZM409.5 824.5V810H395V824.5H409.5ZM424.5 809.5H410V795H424.5V809.5ZM409.5 809.5V795H395V809.5H409.5ZM394.5 795H380V809.5H394.5V795ZM394.5 810H380V824.5H394.5V810ZM394.5 825H380V839.5H394.5V825ZM379.5 839.5V825H365V839.5H379.5ZM379.5 824.5V810H365V824.5H379.5ZM379.5 809.5V795H365V809.5H379.5ZM364.5 795H350V809.5H364.5V795ZM364.5 810H350V824.5H364.5V810ZM364.5 825H350V839.5H364.5V825ZM349.5 839.5V825H335V839.5H349.5ZM349.5 824.5V810H335V824.5H349.5ZM349.5 809.5V795H335V809.5H349.5ZM334.5 795H320V809.5H334.5V795ZM334.5 810H320V824.5H334.5V810ZM334.5 825H320V839.5H334.5V825ZM319.5 839.5V825H305V839.5H319.5ZM319.5 824.5V810H305V824.5H319.5ZM319.5 809.5V795H305V809.5H319.5ZM304.5 825V839.5H290V825H304.5ZM304.5 810V824.5H290V810H304.5ZM304.5 795V809.5H290V795H304.5ZM289.5 795H275V809.5H289.5V795ZM289.5 810H275V824.5H289.5V810ZM289.5 825H275V839.5H289.5V825ZM274.5 825V839.5H260V825H274.5ZM274.5 810V824.5H260V810H274.5ZM274.5 795V809.5H260V795H274.5ZM259.5 795H245V809.5H259.5V795ZM259.5 810H245V824.5H259.5V810ZM259.5 825H245V839.5H259.5V825ZM244.5 825V839.5H230V825H244.5ZM244.5 810V824.5H230V810H244.5ZM244.5 795V809.5H230V795H244.5ZM229.5 795H215V809.5H229.5V795ZM229.5 810H215V824.5H229.5V810ZM229.5 825H215V839.5H229.5V825ZM214.5 825V839.5H200V825H214.5ZM214.5 810V824.5H200V810H214.5ZM214.5 795V809.5H200V795H214.5ZM199.5 795H185V809.5H199.5V795ZM199.5 810H185V824.5H199.5V810ZM199.5 825H185V839.5H199.5V825ZM184.5 825V839.5H170V825H184.5ZM184.5 810V824.5H170V810H184.5ZM184.5 795V809.5H170V795H184.5ZM169.5 795H155V809.5H169.5V795ZM169.5 810H155V824.5H169.5V810ZM169.5 825H155V839.5H169.5V825ZM154.5 825V839.5H140V825H154.5ZM154.5 810V824.5H140V810H154.5ZM154.5 795V809.5H140V795H154.5ZM139.5 795H125V809.5H139.5V795ZM139.5 810H125V824.5H139.5V810ZM139.5 825H125V839.5H139.5V825ZM124.5 825V839.5H110V825H124.5ZM124.5 810V824.5H110V810H124.5ZM124.5 795V809.5H110V795H124.5ZM109.5 795H95V809.5H109.5V795ZM109.5 810H95V824.5H109.5V810ZM109.5 825H95V839.5H109.5V825ZM94.5 825V839.5H80V825H94.5ZM94.5 810V824.5H80V810H94.5ZM94.5 795V809.5H80V795H94.5Z" fill="#C4C4C4"/>
<path fill-rule="evenodd" clip-rule="evenodd" d="M64.5 840L64.5 0L65 0L65 840H64.5Z" fill="black"/>
</svg>
